name D:\school\WTK\thesis\model\3dpredictsim\Results\debug_batch\Pog_s1_tmt_aCst_d05_k500_ig24.mot
datacolumns 128
datarows 4
range 0.54468455 0.57736563
endheader
time	pelvis_tilt	pelvis_list	pelvis_rotation	pelvis_tx	pelvis_ty	pelvis_tz	hip_flexion_l	hip_adduction_l	hip_rotation_l	hip_flexion_r	hip_adduction_r	hip_rotation_r	knee_angle_l	knee_angle_r	ankle_angle_l	ankle_angle_r	subtalar_angle_l	subtalar_angle_r	tmt_angle_l	tmt_angle_r	mtp_angle_l	mtp_angle_r	lumbar_extension	lumbar_bending	lumbar_rotation	arm_flex_l	arm_add_l	arm_rot_l	arm_flex_r	arm_add_r	arm_rot_r	elbow_flex_l	elbow_flex_r	pro_sup_l	pro_sup_r	glut_med1_l/activation	glut_med2_l/activation	glut_med3_l/activation	glut_min1_l/activation	glut_min2_l/activation	glut_min3_l/activation	semimem_l/activation	semiten_l/activation	bifemlh_l/activation	bifemsh_l/activation	sar_l/activation	add_long_l/activation	add_brev_l/activation	add_mag1_l/activation	add_mag2_l/activation	add_mag3_l/activation	tfl_l/activation	pect_l/activation	grac_l/activation	glut_max1_l/activation	glut_max2_l/activation	glut_max3_l/activation	iliacus_l/activation	psoas_l/activation	quad_fem_l/activation	gem_l/activation	peri_l/activation	rect_fem_l/activation	vas_med_l/activation	vas_int_l/activation	vas_lat_l/activation	med_gas_l/activation	lat_gas_l/activation	soleus_l/activation	tib_post_l/activation	flex_dig_l/activation	flex_hal_l/activation	tib_ant_l/activation	per_brev_l/activation	per_long_l/activation	per_tert_l/activation	ext_dig_l/activation	ext_hal_l/activation	ercspn_l/activation	intobl_l/activation	extobl_l/activation	glut_med1_r/activation	glut_med2_r/activation	glut_med3_r/activation	glut_min1_r/activation	glut_min2_r/activation	glut_min3_r/activation	semimem_r/activation	semiten_r/activation	bifemlh_r/activation	bifemsh_r/activation	sar_r/activation	add_long_r/activation	add_brev_r/activation	add_mag1_r/activation	add_mag2_r/activation	add_mag3_r/activation	tfl_r/activation	pect_r/activation	grac_r/activation	glut_max1_r/activation	glut_max2_r/activation	glut_max3_r/activation	iliacus_r/activation	psoas_r/activation	quad_fem_r/activation	gem_r/activation	peri_r/activation	rect_fem_r/activation	vas_med_r/activation	vas_int_r/activation	vas_lat_r/activation	med_gas_r/activation	lat_gas_r/activation	soleus_r/activation	tib_post_r/activation	flex_dig_r/activation	flex_hal_r/activation	tib_ant_r/activation	per_brev_r/activation	per_long_r/activation	per_tert_r/activation	ext_dig_r/activation	ext_hal_r/activation	ercspn_r/activation	intobl_r/activation	extobl_r/activation	
          0.54468455	         -2.92904523	          2.25853813	         -5.76149460	          0.68085569	          0.85722007	          0.00231632	         31.61865368	          3.17894033	         -2.13913162	        -17.75924953	         -1.85807480	          7.14302910	        -14.85189043	         -8.48145359	          6.34062110	         -0.60930007	         -2.87255984	         10.94852451	          0.07715819	          3.44114506	         -0.09962799	         21.58297403	         -1.79113483	         -0.62101735	          1.99920588	         -9.23332869	        -13.54611116	          6.69075400	          7.14263353	        -13.45773851	         16.88257267	         15.02300398	         36.70632466	         86.51662706	         86.51662706	          0.05907806	          0.05907807	          0.05000005	          0.05907809	          0.05907808	          0.05907800	          0.05907809	          0.05907806	          0.21077500	          0.05000024	          0.05000008	          0.11520381	          0.27632359	          0.10611607	          0.13086879	          0.10131342	          0.05000004	          0.06254158	          0.09879977	          0.05000022	          0.05000033	          0.14831636	          0.05364199	          0.05000005	          0.26914891	          0.26486522	          0.13994013	          0.05000115	          0.14330465	          0.14529108	          0.12607570	          0.05470248	          0.05652100	          0.05907807	          0.05000000	          0.05000010	          0.05000010	          0.56556272	          0.36398649	          0.20114125	          0.35769417	          0.55142590	          0.29491487	          0.05961609	          0.10299221	          0.10372766	          0.28362584	          0.09915543	          0.06930074	          0.31288220	          0.21017553	          0.10587413	          0.05000078	          0.05000006	          0.05000004	          0.07083288	          0.11002839	          0.09799568	          0.08445769	          0.05000050	          0.05000077	          0.05000034	          0.31166043	          0.08090035	          0.05000025	          0.05000050	          0.05000037	          0.05000032	          0.35927383	          0.57719858	          0.05000003	          0.05000011	          0.05000005	          0.21908564	          0.09420353	          0.06454480	          0.06183384	          0.29399212	          0.39605753	          0.29896334	          0.25341609	          0.25265774	          0.33143965	          0.05000000	          0.05907813	          0.15345872	          0.05000006	          0.05000001	          0.05000005	          0.05000000	          0.05000003	          0.05000006	
          0.55557824	         -2.92322504	          2.34875550	         -6.04113315	          0.69734728	          0.85618971	          0.00211477	         30.96925567	          3.54203882	         -1.89092732	        -17.57197482	         -2.16018111	          6.90954848	        -15.08652569	        -10.48378083	          5.66893913	         -1.38960566	         -3.34221574	         11.91589159	          0.06155814	          2.95138321	         -0.06513592	         22.73288448	         -1.58621816	         -0.83985131	          2.07161775	        -10.28937596	        -13.53591043	          6.58359802	          6.94960326	        -13.46732941	         17.11609944	         14.89138277	         37.79883798	         86.51662706	         86.51662706	          0.05000000	          0.05000001	          0.10591637	          0.05000002	          0.05000002	          0.05000002	          0.05000003	          0.05000003	          0.17838683	          0.05000001	          0.05000086	          0.09750138	          0.23386346	          0.34561903	          0.21583586	          0.11375075	          0.05000030	          0.05302190	          0.08361904	          0.06558791	          0.09095913	          0.12552577	          0.05000003	          0.06980431	          0.46371775	          0.22416542	          0.11843661	          0.06980196	          0.17977771	          0.18973662	          0.15943386	          0.05000010	          0.05955829	          0.05000000	          0.05907857	          0.06980459	          0.06980436	          0.47992523	          0.37514581	          0.22702921	          0.30273010	          0.51950487	          0.24959758	          0.05045535	          0.08716619	          0.08778862	          0.24004324	          0.08391898	          0.05865336	          0.26480402	          0.17787949	          0.08960528	          0.05000151	          0.05000055	          0.05756239	          0.05994854	          0.09312123	          0.19262934	          0.12470402	          0.06980447	          0.05907864	          0.05907829	          0.26377000	          0.09744610	          0.05907815	          0.05000182	          0.05000254	          0.05907803	          0.30406698	          0.52800946	          0.05907812	          0.05907839	          0.05907811	          0.18542044	          0.10776256	          0.16075458	          0.16075433	          0.24881660	          0.33519840	          0.25302394	          0.21447561	          0.21383386	          0.28050992	          0.05000000	          0.05000007	          0.14299785	          0.05000001	          0.05000000	          0.05000002	          0.05652211	          0.06847645	          0.05427114	
          0.56647193	         -2.91354538	          2.43921075	         -6.29153111	          0.71410215	          0.85515631	          0.00192533	         30.14124425	          3.83255040	         -1.61526652	        -17.30977798	         -2.45283106	          6.66440418	        -15.52693322	        -12.60514090	          5.18484984	         -2.33502698	         -3.83149182	         12.80918158	         -0.04670460	          2.42732815	         -0.18479099	         23.72081416	         -1.36224138	         -1.06447078	          2.13289974	        -11.34752480	        -13.53030345	          6.53605227	          6.67279344	        -13.47608771	         17.27340470	         14.78599712	         38.86038514	         86.51662706	         86.51662706	          0.25899956	          0.26474691	          0.32854660	          0.37661837	          0.23700472	          0.21407612	          0.07607177	          0.08052829	          0.15233920	          0.08331715	          0.05907809	          0.08251911	          0.19792748	          0.29251043	          0.18267006	          0.10795158	          0.05000010	          0.05907935	          0.09025163	          0.15274296	          0.12854671	          0.10623723	          0.05907673	          0.05907804	          0.39246181	          0.18971968	          0.26217519	          0.05907603	          0.15215266	          0.16058127	          0.13493490	          0.05000030	          0.05040646	          0.05580830	          0.05000043	          0.05907829	          0.05907812	          0.56600089	          0.41821396	          0.21203403	          0.45797856	          0.59814240	          0.30333334	          0.06600472	          0.10681905	          0.07429882	          0.34700926	          0.07102380	          0.05000003	          0.35264068	          0.15054615	          0.07583634	          0.05050609	          0.05000004	          0.05000003	          0.05073674	          0.07882873	          0.16302949	          0.10554174	          0.05907818	          0.05000055	          0.05000022	          0.25544238	          0.08247259	          0.05000030	          0.05000060	          0.05000029	          0.05000018	          0.25734338	          0.49618438	          0.05000007	          0.05000035	          0.05000008	          0.15692831	          0.09120354	          0.13605268	          0.13605246	          0.21058286	          0.28369103	          0.21414369	          0.18151879	          0.18097568	          0.23740613	          0.05000004	          0.08807632	          0.17992822	          0.05000007	          0.09765632	          0.05000014	          0.06036415	          0.05795420	          0.05000001	
          0.57736563	         -2.90194005	          2.51985911	         -6.50579963	          0.73090483	          0.85414382	          0.00171258	         29.23417364	          4.10434441	         -1.34022967	        -16.94746333	         -2.72721544	          6.42559886	        -15.90582867	        -14.86662912	          4.80815485	         -3.39815643	         -4.33943872	         13.64154837	         -0.03503893	          1.87181706	         -0.18203538	         24.41450240	         -1.14151749	         -1.28412781	          2.18342966	        -12.35638195	        -13.52512711	          6.55788198	          6.34900309	        -13.49202186	         17.38054445	         14.67629845	         39.86993655	         86.51662706	         86.51662706	          0.35690001	          0.37495547	          0.41077696	          0.31874646	          0.20058790	          0.25618935	          0.07386269	          0.11271974	          0.12893042	          0.07051448	          0.05000017	          0.06983905	          0.16751350	          0.24756275	          0.21458998	          0.16047068	          0.05000007	          0.05000227	          0.11973064	          0.24384686	          0.18906260	          0.15687094	          0.05000003	          0.05000004	          0.33215522	          0.16056694	          0.22202149	          0.05000000	          0.16407638	          0.21821989	          0.16307423	          0.05000000	          0.05000000	          0.05000000	          0.05000000	          0.05000021	          0.05000007	          0.63178311	          0.35395032	          0.17945248	          0.67802592	          0.62238698	          0.39171109	          0.08241060	          0.09040499	          0.06288189	          0.29368703	          0.06011012	          0.05000002	          0.29845313	          0.12741289	          0.06418317	          0.06758562	          0.05000003	          0.05000004	          0.05000001	          0.06671579	          0.18011168	          0.15720385	          0.05000047	          0.05000198	          0.05462693	          0.21619060	          0.06980029	          0.05000013	          0.05000064	          0.05000047	          0.05000037	          0.21779941	          0.44455589	          0.05000004	          0.05000015	          0.05000004	          0.13281434	          0.11514670	          0.11514672	          0.11514669	          0.17822420	          0.24009841	          0.18123786	          0.15362620	          0.15316657	          0.20092577	          0.11173725	          0.15553855	          0.15378259	          0.05000064	          0.19690878	          0.05000055	          0.09308124	          0.05000000	          0.05000000	
